# xmcd CD database file
#
# Track frame offsets:
#	150
#	9650
#	22237
#	32112
#	43125
#	54412
#	65475
#	75225
#	84587
#	93387
#	106050
#	120337
#	130912
#	143925
#	155162
#	168150
#	178537
#	189000
#	198562
#
# Disc length: 2810 seconds
#
# Revision: 0
# Processed by: cddbd v1.4PL0 Copyright (c) Steve Scherf et al.
# Submitted via: CDex 1.50beta10
#
DISCID=f50af813
DTITLE=Patsy Cline - Greatest Hits Vol 2
DYEAR=1900
DGENRE=Country
TTITLE0=I'm Moving Along
TTITLE1=Just A Closer Walk With Thee
TTITLE2=Turn The Cards Slowly
TTITLE3=Don't Ever Leave Me Again
TTITLE4=The Heart You Break May Be Your Own
TTITLE5=Hiding Out
TTITLE6=I'm Blue Again
TTITLE7=Love Me, Love Me, Honey Do
TTITLE8=Try Again
TTITLE9=Yes I Understand
TTITLE10=Then You'll Know
TTITLE11=Gotta Lot Of Rhythm In My Soul
TTITLE12=If I Could See The World
TTITLE13=Dear God
TTITLE14=Life's Railway To Heaven
TTITLE15=He Will Do For You
TTITLE16=San Antonio Rose
TTITLE17=True Love
TTITLE18=Crazy
EXTD=
EXTT0=
EXTT1=
EXTT2=
EXTT3=
EXTT4=
EXTT5=
EXTT6=
EXTT7=
EXTT8=
EXTT9=
EXTT10=
EXTT11=
EXTT12=
EXTT13=
EXTT14=
EXTT15=
EXTT16=
EXTT17=
EXTT18=
PLAYORDER=
